<?xml version="1.0" standalone="no"?>
<!DOCTYPE svg PUBLIC "-//W3C//DTD SVG 20010904//EN"
 "http://www.w3.org/TR/2001/REC-SVG-20010904/DTD/svg10.dtd">
<svg version="1.0" xmlns="http://www.w3.org/2000/svg"
 width="1271.000000pt" height="1280.000000pt" viewBox="0 0 1271.000000 1280.000000"
 preserveAspectRatio="xMidYMid meet">
<metadata>
Created by potrace 1.15, written by Peter Selinger 2001-2017
</metadata>
<g transform="translate(0.000000,1280.000000) scale(0.100000,-0.100000)"
fill="#ff5722" stroke="none">
<path d="M3117 10653 c-8 -14 49 -277 83 -379 43 -130 103 -255 186 -384 92
-145 155 -220 237 -285 144 -115 309 -172 532 -182 159 -7 597 18 738 42 22 4
27 1 27 -15 0 -11 -72 -383 -160 -827 -89 -445 -231 -1159 -316 -1588 -85
-429 -224 -1129 -309 -1555 -533 -2680 -498 -2503 -530 -2695 -40 -241 -32
-329 34 -400 16 -16 32 -41 36 -55 13 -43 52 -86 102 -111 44 -22 59 -24 198
-23 221 0 417 43 690 151 197 78 258 110 250 131 -66 171 -74 319 -31 577 15
88 153 792 307 1565 155 773 285 1431 291 1463 6 34 15 56 21 54 7 -2 52 -73
101 -158 681 -1181 1346 -2190 1891 -2869 786 -980 1417 -1436 1945 -1406 333
18 649 149 1000 414 400 302 590 604 564 892 -7 75 -17 85 -50 49 -19 -21 -19
-21 -24 69 -3 50 -8 94 -12 97 -4 4 -53 -33 -110 -82 -320 -274 -595 -425
-878 -483 -198 -41 -357 -18 -529 76 -537 294 -1328 1226 -2118 2494 -316 508
-774 1315 -759 1339 3 5 97 74 209 152 908 642 1895 1466 2593 2163 299 300
438 462 504 589 45 89 50 130 25 236 -15 63 -107 249 -168 341 -76 113 -211
240 -372 347 -90 60 -257 153 -276 153 -11 0 -20 -15 -29 -47 -20 -81 -119
-331 -189 -478 -384 -802 -1122 -1643 -2201 -2508 -266 -213 -824 -627 -968
-718 -21 -14 -31 -16 -28 -8 9 26 706 3545 706 3563 0 16 -6 18 -45 14 -43 -5
-45 -5 -45 21 0 14 5 44 10 66 5 22 5 44 1 48 -5 5 -132 -5 -282 -22 -1039
-116 -1877 -151 -2199 -93 -213 38 -411 117 -566 223 -73 51 -80 54 -87 42z"/>
</g>
</svg>
